<svg xmlns="http://www.w3.org/2000/svg" viewBox="0 0 377.5 234"><path fill="#FFF" d="M.9 80.2l188 153.2L376.6 80.5 189 .5.9 80.2z"/><radialGradient id="a" cx="188.74" cy="118.985" r="157.0275" gradientTransform="matrix(1 0 0 -1 0 236)" gradientUnits="userSpaceOnUse"><stop offset="0" stop-color="#FDBB30"/><stop offset=".35" stop-color="#FDB930"/><stop offset=".53" stop-color="#FCB130"/><stop offset=".69" stop-color="#FAA330"/><stop offset=".82" stop-color="#F78F31"/><stop offset=".93" stop-color="#F47731"/><stop offset="1" stop-color="#F26531"/></radialGradient><path fill="url(#a)" d="M188.8.1L0 80.1 188.9 234 377.5 80.4 188.9 0l-.1.1z"/><radialGradient id="b" cx="1255.7719" cy="-308.0684" r="159.96" gradientTransform="matrix(.97 0 -.06 -.74 -1045.72 -81)" gradientUnits="userSpaceOnUse"><stop offset="0" stop-color="#00AEEF"/><stop offset=".44" stop-color="#00AEEF"/><stop offset=".47" stop-color="#00A5E7"/><stop offset=".63" stop-color="#0280C5"/><stop offset=".77" stop-color="#0366AD"/><stop offset=".9" stop-color="#04569E"/><stop offset="1" stop-color="#045099"/></radialGradient><path fill="url(#b)" d="M23.1 80.2L188.9 6.7l164.9 73.6-164.9 146.4L23.1 80.2z"/><path fill="#00AEEF" d="M260.2 54.2L320 79.1l-59.4-27.3-.4 2.4zm-16.6-7.5l4.2-.6-59-27.1-32.5 15.7v4l32.6-14 54.8 22.8-.1-.8zm-99.4-6.1l-59.9 29 59.9-25.7v-3.3z"/><path fill="#FFF" d="M235 45.2c.5.5.8 1.3.9 2v32.9c0 .3 0 .5-.1.8-.1.5-.3.9-.6 1.2h22.9c.1-.5.6-3.4.9-5.2-1.8 2-4 2.1-6.6 2.2h-.5c-2.7.1-5.3.1-8-.1l-.4-.1V63.3h8.1c.5 0 1 .3 1.4.6v-4c-.4.4-.9.6-1.4.6h-8.1V48h8.9c1.3-.1 2.6.5 3.4 1.4.2-1.2.5-3.6.6-4.3l-21.4.1zm-12.1 0c.6.5.9 1.2 1 2v22.3c0 1.3-.1 2.7-.3 4-.2 1.7-1 3.3-2.1 4.6-1.4 1.3-3.3 2-5.2 1.9-2.1.1-4.2-.6-5.7-2.1-2.1-2.1-2.5-5.2-2.5-7.5V47.2c0-.2 0-.4.1-.6.1-.6.4-1.1.8-1.5h-9.5c.6.5 1 1.2 1 2v23c0 11.7 11.3 12.6 14.8 12.6 7 0 11-3.1 12.1-9.3.2-1.3.3-2.7.3-4v-22c0-.2 0-.4.1-.6.1-.6.4-1.1.8-1.5l-5.7-.1zm-73.5-12.4h-16.8c.8.7 1.3 1.8 1.3 2.9v43.7c0 .3 0 .5-.1.8-.2.8-.6 1.5-1.2 2.1h18.7c6.7 0 11.7-1.6 14.9-4.9 1.8-1.8 3-4 3.4-6.5.1-.7.2-1.5.2-2.2 0-11.2-13.6-12.1-14.2-12.1l-.1-.9c.4-.1 9.9-2.3 9.9-11.3.1-2.6-.9-5-2.8-6.8-3.6-3.9-10-4.8-13.2-4.8zm-5.2 21.3V36.2l3.2-.2c5.9 0 9 4.6 9 9.2.1 2.4-.8 4.8-2.5 6.6-2 1.9-4.6 2.8-7.3 2.8h-2.3l-.1-.5zm0 24.2v-20l3.6-.2c7.3 0 11.1 3.4 11.1 9.8.1 2.7-.9 5.4-2.8 7.3-2.2 2.2-5.7 3.4-10 3.4-1 .1-1.7 0-1.9-.3zM174 45.2c.5.5.8 1.3.8 2v32.9c0 .2 0 .4-.1.6-.1.5-.3 1-.7 1.4h22.4l.9-5.2c-1.6 1.7-3.7 2-8.2 2.1-2.1.1-4.2 0-6.3-.2l-.4-.1V47.2c0-.3 0-.5.1-.8.1-.5.3-.9.5-1.3h-9zm126.2 32.9h-17.8c.7.7 1 1.7 1 2.7v41.7c0 .3 0 .5-.1.8-.1.7-.5 1.4-1 1.9h17.8c15.9 0 24.2-9.6 26-19.7.3-1.4.4-2.9.4-4.4-.1-6-2.4-11.7-6.6-16-4.6-4.6-11.3-7-19.7-7zm-7.1 43.3v-40l.4-.1c1-.1 1.9-.1 2.9 0h1c13 0 18.8 9.9 18.8 19.8 0 7.8-2.5 20.8-19.4 20.8H293l.1-.5zM271 88.3c.4.6.7 1.3.7 2v18.2l-17.9-20.2H246c.7.8 1.1 1.8 1.1 3.8v31.2c0 .2 0 .5-.1.7-.1.5-.3.9-.6 1.3h5.1c-.5-.6-.7-1.3-.7-2V95.8l.9 1.6c.5.9 14 16.4 23.4 27.1V90.3c0-.2 0-.5.1-.7.1-.5.3-.9.6-1.3H271zm-48.7-.8c-10.3-.6-19.1 7.3-19.6 17.6v1.3c-.3 10.4 8 19.1 18.4 19.3h.7c9.6.1 19.4-5.8 19.5-19 .2-5-1.7-9.9-5.2-13.5-3.7-3.5-8.6-5.6-13.8-5.7zm-7 32.6c-2.1-2.1-4.6-6.3-4.5-14.3.1-9.4 4.4-15.5 11.2-15.5 2.6 0 5 1 6.8 2.8 2.9 2.9 4.4 7.8 4.4 14 0 9.7-4.4 15.9-11 15.9-2.6 0-5.1-1.1-6.9-2.9zm-26.6-31.9c-.2.6-9.1 23.2-9.1 23.2l-10-23.2h-9.7c.5.5.9 1.2.9 2v32.9c0 .2 0 .5-.1.7-.1.5-.3.9-.6 1.3h5c-.5-.6-.8-1.3-.8-2V98.9l.9-.2 11.6 26.5 11.9-29.4.6-1.5.9.3-.2 1.2v27.3c0 .3 0 .6-.1.8-.1.4-.2.9-.5 1.2h8.8c-.5-.6-.7-1.3-.8-2V90.3c0-.3 0-.5.1-.8.1-.5.3-.9.6-1.3h-9.4zm-64.7 35c-.4.8-.9 1.4-1.6 2h6.2c-.5-.5-.8-1.3-.7-2 0-.2.1-.4.1-.6l2.6-6.7H144l3 6.7c.2.4.2.9.1 1.4-.1.5-.3.9-.7 1.3h10c-.7-.6-1.2-1.3-1.6-2.1-.8-1.9-13.5-30.2-16-35.7-2.3 5.6-13.8 33.7-14.8 35.7zm8.3-10.8l4.9-11.9 5.5 12.5H132l.3-.6zm-53-34.3H61.5c.7.7 1 1.7 1 2.7v41.7c0 .3 0 .5-.1.8-.1.7-.5 1.4-1 1.9h17.8c15.9 0 24.2-9.6 26-19.7.3-1.5.4-2.9.4-4.4-.1-6-2.5-11.7-6.6-16-4.6-4.7-11.3-7-19.7-7zm-7.1 43.3v-40l.3-.1c1-.1 1.9-.1 2.9 0h1c5.4 0 9.9 1.7 13.2 5 5.1 5.1 5.6 12 5.6 14.8 0 7.8-2.5 20.8-19.4 20.8H72l.2-.5zm38.6-33.2c.5.6.7 1.3.7 2v32.9c0 .2 0 .5-.1.7-.1.5-.3.9-.6 1.3h8.9c-.5-.6-.7-1.3-.8-2V90.3c0-.2 0-.5.1-.7.1-.5.3-.9.6-1.3h-8.8z"/><path fill="#045099" d="M151.3 82.6h-19.9c1.2-.6 2-1.9 2-3.3V35.6c.1-1.4-.7-2.7-2-3.3h18c4.9 0 16.4 2.1 16.4 11.9 0 9.5-10.2 11.8-10.2 11.8s14.6.7 14.6 12.6c0 5.8-4.1 14-18.9 14zm-3.9-46.1c-1 0-2.7.1-2.7.1v17.5h1.9c4.9 0 9.4-2.8 9.4-8.9-.1-4.2-2.9-8.7-8.6-8.7zm.4 22.1c-.6 0-3.2.2-3.2.2v19.3c.5.1 1 .1 1.5.1 7.4 0 12.3-3.6 12.3-10.3.1-6.9-4.5-9.3-10.6-9.3zm49 24h-24c.9-.5 1.5-1.4 1.5-2.5V47.2c0-1.1-.5-2.1-1.5-2.5h11.5c-.9.5-1.5 1.5-1.4 2.5v31.3c2.1.2 4.2.3 6.2.2 5.6-.2 7.3-.4 9-3.5l-1.3 7.4zm26.5-35.4c0-1.1-.7-2.1-1.7-2.5h8.1c-1 .5-1.6 1.5-1.6 2.6v22.1c-.1 9.9-5.1 13.8-12.9 13.8-6.6 0-15.3-2.7-15.3-13v-23c0-1.1-.8-2.1-1.8-2.5h12.1c-1 .4-1.7 1.4-1.7 2.5v23.1c0 4.1 1.4 9.2 7.8 9.2 5.6 0 7.1-4.1 7.1-9.9l-.1-22.4zm35.2 35.4h-24.8c1.1-.3 1.8-1.4 1.7-2.5V47.2c0-1.1-.6-2-1.6-2.5h23.1l-.8 5.8c-.7-1.4-2.2-2.2-3.8-2-2.2-.1-8.4 0-8.4 0v11.6h7.7c.9-.1 1.6-.7 1.9-1.6v6.8c-.3-.8-1-1.4-1.9-1.6H244v14.8c2.6.2 5.2.2 7.9.1 3.4-.1 5.8 0 7.9-3.4l-1.3 7.4zM79.2 125.7h-19c1.1-.7 1.8-1.9 1.8-3.2V80.8c.1-1.3-.6-2.5-1.8-3.2h19.1c21.6 0 26.8 15.7 26.8 23.5 0 13.1-9.8 24.6-26.9 24.6zm-2.8-43.9c-1.3-.1-2.5-.1-3.8 0v39.6c1.1.1 2.1.1 3.2 0 14.7 0 18.9-10.2 18.9-20.3 0-8.3-4.5-19.3-18.3-19.3zm33.3 43.9c.9-.5 1.4-1.5 1.4-2.5V90.3c.1-1-.4-2-1.4-2.5h11.1c-.9.5-1.4 1.5-1.4 2.5v32.9c0 1 .5 2 1.4 2.5h-11.1zm34-9.3h-12.6c-1.4 3.4-2.4 6-2.5 6.4-.4 1.3-.1 2.2 1.4 2.9h-8.8c1.1-.7 1.9-1.6 2.5-2.7 1.1-2.1 15.2-36.6 15.2-36.6s15.5 34.5 16.4 36.6c.6 1.2 1.5 2.1 2.7 2.7h-13c1.5-.9 1.9-1.8 1.5-2.9l-2.8-6.4zm-11-3.8h9.3l-4.8-10.9-4.5 10.9zm55.5 13.1c.9-.5 1.4-1.5 1.3-2.5V95.9c0-.5.1-.9.2-1.4l-.6 1.5-12.3 30.4-12-27.6V123c0 1.1.5 2 1.5 2.5h-7.4c.9-.5 1.5-1.5 1.4-2.5V90.3c-.1-1.1-.7-2-1.6-2.5h11.2l9.7 22.5 8.8-22.5h10.9c-.9.5-1.4 1.5-1.4 2.5v32.9c0 1 .5 2 1.4 2.5h-11.1zm33.6.5c-11-.1-19.6-8.3-19.5-19.8.1-10 7.3-19.5 20.1-19.4 9.1.1 19.5 6.8 19.4 19.7-.2 13.4-9.9 19.6-20 19.5zm.2-35.5c-6 0-10.6 5.4-10.7 15.1-.1 11.5 5.2 16.8 11 16.8s10.4-5.2 10.5-15.4c0-10.8-4.7-16.5-10.8-16.5zm53.6-.4v35.4S251.2 98 251.2 97.5v25.6c-.1 1 .4 2 1.4 2.5h-7.3c.9-.5 1.4-1.5 1.4-2.5V92c0-2.6-.7-3.4-1.9-4.2h9.2l17.2 19.5v-17c.1-1-.4-2-1.4-2.5h7.1c-.8.5-1.4 1.5-1.3 2.5zm24.6 35.4h-19c1.1-.7 1.8-1.9 1.8-3.2V80.8c.1-1.3-.6-2.6-1.8-3.2h19.1c21.6 0 26.8 15.7 26.8 23.5-.1 13.2-9.9 24.6-26.9 24.6zm-2.9-43.9c-1.3-.1-2.5-.1-3.8 0v39.6c1.1.1 2.1.1 3.2 0 14.7 0 18.9-10.2 18.9-20.3 0-8.3-4.5-19.3-18.3-19.3z"/><path fill="#FFF" d="M149.8 80.8h-19.9c1.2-.6 2-1.9 2-3.3V33.9c.1-1.4-.7-2.7-2-3.3h18c4.9 0 16.5 2.1 16.5 11.9 0 9.5-10.2 11.8-10.2 11.8s14.6.8 14.6 12.6c0 5.8-4.2 13.9-19 13.9zm-3.8-46c-1 0-2.7.2-2.7.2v17.5h1.9c4.9 0 9.4-2.8 9.4-8.9-.1-4.3-3-8.8-8.6-8.8zm.4 22.1c-.6 0-3.1.2-3.1.2v19.3c.5.1 1 .1 1.5.2 7.4 0 12.3-3.6 12.3-10.3 0-7.1-4.6-9.4-10.7-9.4zm49 24h-24c.9-.5 1.5-1.4 1.5-2.5V45.5c0-1.1-.5-2.1-1.5-2.5h11.5c-.9.5-1.5 1.5-1.4 2.5v31.3c2.1.2 4.2.3 6.3.2 5.6-.2 7.3-.4 9-3.4l-1.4 7.3zm26.5-35.4c0-1.1-.7-2.1-1.7-2.5h8.1c-1 .5-1.6 1.5-1.6 2.6v22.1c-.1 9.9-5.1 13.8-12.9 13.8-6.6 0-15.3-2.7-15.3-13.1V45.5c0-1.1-.8-2.1-1.8-2.5h12.1c-1 .4-1.7 1.4-1.7 2.5v23.1c0 4.1 1.4 9.1 7.8 9.1 5.6 0 7.1-4.1 7.1-9.9l-.1-22.3zM257 80.9h-24.7c1.1-.3 1.8-1.4 1.7-2.5V45.5c0-1.1-.6-2-1.6-2.5h23.1l-.8 5.8c-.7-1.4-2.2-2.2-3.8-2-2.1-.1-8.4 0-8.4 0v11.6h7.7c.9-.2 1.6-.7 1.9-1.6v6.8c-.3-.9-1-1.5-1.9-1.6h-7.7v14.9c2.6.2 5.2.2 7.9.1 3.4-.1 5.8 0 7.9-3.4l-1.3 7.3zm-179.2 43h-19c1.1-.7 1.8-1.9 1.8-3.2V79c.1-1.3-.6-2.5-1.8-3.2h19.1c21.6 0 26.8 15.7 26.8 23.5-.1 13.2-9.8 24.6-26.9 24.6zM75 80c-1.3-.1-2.5-.1-3.8 0v39.6c1.1.1 2.1.1 3.2 0 14.7 0 18.9-10.2 18.9-20.3C93.3 91.1 88.7 80 75 80zm33.2 43.9c.9-.5 1.4-1.5 1.4-2.5V88.5c.1-1-.5-2-1.4-2.5h11.1c-.9.5-1.4 1.5-1.4 2.5v32.9c0 1 .5 2 1.4 2.5h-11.1zm34-9.3h-12.6c-1.4 3.4-2.4 6-2.5 6.4-.4 1.3-.1 2.2 1.4 2.9h-8.8c1.1-.7 1.9-1.6 2.5-2.7 1.1-2.1 15.2-36.6 15.2-36.6s15.5 34.5 16.4 36.6c.6 1.2 1.5 2.1 2.7 2.7h-12.8c1.5-.9 1.9-1.8 1.5-2.9l-3-6.4zm-11-3.8h9.3l-4.8-10.8-4.5 10.8zm55.6 13.1c.9-.5 1.4-1.5 1.3-2.5V94.2c0-.5.1-.9.2-1.4l-.6 1.5-12.3 30.4-12-27.5v24.3c0 1 .5 2 1.5 2.5h-7.4c.9-.5 1.5-1.5 1.4-2.5v-33c-.1-1.1-.7-2.1-1.7-2.5h11.2l9.7 22.5 8.8-22.5h10.9c-.9.5-1.4 1.5-1.4 2.5v32.9c0 1 .5 2 1.4 2.5h-11zm33.5.6c-11-.1-19.6-8.3-19.5-19.8 0-10 7.3-19.5 20.1-19.4 9.1.1 19.5 6.8 19.4 19.7-.1 13.3-9.9 19.6-20 19.5zm.2-35.6c-6 0-10.6 5.4-10.7 15.1-.1 11.5 5.2 16.8 11 16.8s10.4-5.2 10.5-15.4c0-10.7-4.6-16.5-10.8-16.5zm53.7-.4v35.4s-24.4-27.6-24.4-28.1v25.6c-.1 1 .5 2 1.4 2.5h-7.3c.9-.5 1.4-1.5 1.4-2.5V90.2c0-2.6-.7-3.4-1.9-4.2h9.2l17.2 19.5v-17c.1-1-.4-2.1-1.4-2.5h7.1c-.9.5-1.4 1.5-1.3 2.5zm24.4 35.5h-19c1.1-.7 1.8-1.9 1.8-3.2V79.1c.1-1.3-.6-2.6-1.8-3.2h19.1c21.6 0 26.8 15.7 26.8 23.5.1 13.1-9.7 24.6-26.9 24.6zm-2.7-43.9c-1.3-.1-2.5-.1-3.8 0v39.6c1.1.1 2.1.1 3.2 0 14.7 0 18.9-10.2 18.9-20.3 0-8.3-4.6-19.3-18.3-19.3z"/><linearGradient id="c" x1="48.904" x2="336.04" y1="75.14" y2="75.14" gradientUnits="userSpaceOnUse" gradientTransform="matrix(1 0 0 -1 0 236)"><stop offset="0" stop-color="#F47920"/><stop offset="0" stop-color="#F57E1F"/><stop offset=".01" stop-color="#F8941C"/><stop offset=".03" stop-color="#FAA319"/><stop offset=".04" stop-color="#FCAC17"/><stop offset=".07" stop-color="#FCAF17"/><stop offset=".07" stop-color="#FCB01A"/><stop offset=".14" stop-color="#FDC556"/><stop offset=".21" stop-color="#FDD78A"/><stop offset=".28" stop-color="#FEE5B4"/><stop offset=".35" stop-color="#FEF0D5"/><stop offset=".42" stop-color="#FFF8EC"/><stop offset=".48" stop-color="#FFFDFA"/><stop offset=".53" stop-color="#FFF"/><stop offset=".6" stop-color="#FFFEFC"/><stop offset=".65" stop-color="#FFFAF2"/><stop offset=".71" stop-color="#FFF5E1"/><stop offset=".75" stop-color="#FEECC9"/><stop offset=".8" stop-color="#FEE2A9"/><stop offset=".85" stop-color="#FDD483"/><stop offset=".89" stop-color="#FDC556"/><stop offset=".93" stop-color="#FCB323"/><stop offset=".94" stop-color="#FCAF17"/><stop offset="1" stop-color="#F47920"/></linearGradient><path fill="url(#c)" d="M49 202.5c1.1-5.5 13.5-41.2 143.8-18.2 131.4 23 143.2-16.2 143.2-16.2v-48.8c-1 7.5-12.5 37.8-136.2 18.4-154.3-24.3-150.9 21.1-150.9 21.1l.1 43.7z"/><path fill="#F78E1E" d="M336.1 127.1s-4.7 36.3-136.2 15.5c-156.6-24.7-151 23.8-151 23.8v29.4s8.5-40.5 143.9-16.8c134.3 23.6 143.3-17.8 143.3-17.8v-34.1z"/><path fill="#F47920" d="M83 165.4c-1.2 3.9-1.4 4.5-1.4 4.8s.2.4.8.3v.6c-3.2.8-4.8 1.2-7.9 2.2v-.6c.6-.3 1-.8 1.2-1.4 2.7-8.5 6.8-18.1 8-25.6 0-.3-.5-.3-.9-.2v-.5c3.9-1 7.8-1.7 11.7-2.2v.6c-.5.1-.9.3-.8.7 1.2 6.3 5.4 14.8 8.3 22 .4 1.1.7 1.4 1.3 1.3v.6c-3.5.3-5.3.5-8.8 1v-.6c.6-.1.8-.4.8-.7s-1.3-3.5-1.5-4.1c-3.7.4-7.3 1-10.8 1.8zm1.1-4.3c3.3-.8 5-1.1 8.3-1.6-1.7-4.6-2.6-7-4.3-11.3-1.5 5-2.3 7.7-4 12.9zm35.2.4c6.2.1 9.3.2 15.4.6.5 0 .7-.2.8-1.4h.5v8.5h-.5c-.1-1-.3-1.2-.8-1.2-7.8-.6-15.6-.8-23.4-.6v-.6c1.1-.1 1.3-.5 1.3-.9v-23.3c0-.4-.1-.7-1.3-.8v-.5c3.7-.1 5.6-.1 9.2 0v.5c-1.1.1-1.3.4-1.3.8v18.9zm45.9 9.3v-.6c1.1 0 1.2-.3 1.2-.7V151l-.1-.1c-3.2 7.3-4.8 11.7-8 18.6-2.7-6.8-5.3-13.6-7.9-20.5h-.1v18.9c0 .4.1.8 1.2 1v.6c-3.2-.3-4.7-.4-7.9-.7v-.6c1.1 0 1.3-.3 1.3-.7v-23.3c0-.4-.1-.8-1.3-.9v-.6c4.7.4 7 .6 11.7 1.1v.5c-.7 0-1.1.2-1.1.7 0 .3 4.2 11.1 4.2 11.1.3 0 4.5-9.6 4.5-10.2s-.4-.8-1.1-1v-.6c4.9.6 7.3.9 12.1 1.5v.5c-1.1-.1-1.2.2-1.2.7v23.3c0 .4.1.8 1.2 1v.7c-3.3-.5-5.1-.8-8.7-1.2zm45.4-6.7c-.1 8.9-6.4 12.4-14 11.3-7.9-1.1-14-7.2-14-15.4.1-9 6.4-12.3 14-11.2 7.8 1.1 14 7.1 14 15.3zm-21.4-3.1c-.1 4.3 3.1 8 7.4 8.6 3.9.6 7.4-1.6 7.4-6.4.1-4.3-3.1-8-7.4-8.5-3.9-.7-7.4 1.5-7.4 6.3zm31.2-7.2c0-.4-.1-.8-1.3-1v-.5c4.3.6 6.5.8 10.8 1.3v.5c-1-.1-1.3.2-1.3.5 0 .5 7.8 10.4 10.9 14.7V156c0-.6-.4-.8-.9-.9v-.6c3.3.3 4.9.5 8.2.7v.5c-1.1 0-1.2.3-1.2.7v23.3c0 .4.1.8 1.2 1v.6c-3.4-.3-5.1-.4-8.5-.8v-.6c.8.1 1.1-.2 1-.4-1.5-4.7-8.8-11.6-13-17.5v15.8c0 .4.1.8 1.2 1v.6l-8.5-1v-.6c1.1.1 1.3-.3 1.3-.7l.1-23.3zm37.6 3.6c0-.4-.1-.8-1.2-.9v-.5c6 .4 8.9.5 14.9.6 8.3.1 12.1 5 12.1 12.7 0 7.1-4.3 13.4-12.6 13.4-5.8-.1-8.6-.2-14.4-.6v-.6c1.1 0 1.2-.3 1.2-.8v-23.3zm6.7 19.3c2.3.1 3.4.1 5.7.1 4.8.1 6.7-3 6.7-7.4s-1.9-7.3-6.7-7.4c-2.3 0-3.4-.1-5.7-.2v14.9zm28.6-5.5l.5.2c-.1.4-.1.7-.1 1.1 0 1.4 4.8 3 9.5 2.1 4.5-.9 6.5-2.7 6.5-4.9 0-3.8-18.5 3.6-18.5-6.2 0-5 4.3-8.5 10.9-9.7 6.1-1.2 10.6-.6 11.8-.9.5-.2 1-.6 1.2-1.1h.5c-1.2 3-1.9 4.5-3.1 7.7l-.5-.1v-.6c0-1.3-5.1-1.2-9.3-.4-3.9.8-5.5 2.7-5.2 3.2 1.8 3.4 17.7-3.2 18.6 6.4.4 4-2.9 10.2-12.6 12.1-7.5 1.5-10.8-.5-11.8-.4-.4 0-.6.4-.9.7l-.5-.1c1-3.4 1.7-5.3 3-9.1z"/><path fill="#FFF" d="M81.5 163.9c-1.2 3.9-1.5 4.5-1.5 4.8s.2.4.8.3v.6c-3.2.8-4.8 1.2-7.9 2.2v-.6c.6-.3 1-.8 1.2-1.4 2.7-8.5 6.8-18.1 8-25.6 0-.3-.5-.3-.9-.2v-.5c3.9-1 7.8-1.7 11.7-2.2v.5c-.5.1-.9.3-.8.7 1.2 6.3 5.4 14.8 8.3 22 .4 1.1.7 1.4 1.3 1.3v.6c-3.5.3-5.3.5-8.8 1v-.6c.6-.1.8-.4.8-.7s-1.3-3.5-1.5-4.1c-3.7.4-7.2 1-10.7 1.9zm1.1-4.3c3.3-.8 5-1.1 8.3-1.6-1.7-4.6-2.6-7-4.3-11.3-1.6 4.9-2.4 7.6-4 12.9zm35.2.3c6.2.1 9.3.2 15.4.6.5 0 .7-.2.8-1.4h.5v8.5h-.5c-.1-1-.3-1.2-.8-1.2-7.8-.5-15.6-.8-23.4-.6v-.6c1.1-.1 1.2-.4 1.2-.9V141c0-.4-.1-.7-1.2-.8v-.6c3.7-.1 5.5-.1 9.2 0v.5c-1.1.1-1.2.4-1.2.8v19zm45.9 9.4v-.6c1.1 0 1.3-.3 1.3-.7v-18.6l-.1-.1c-3.2 7.3-4.8 11.7-8 18.6-2.8-6.8-5.3-13.6-7.9-20.5h-.1v18.9c0 .4.1.8 1.3 1v.6c-3.2-.3-4.7-.4-7.9-.7v-.6c1.1 0 1.3-.3 1.3-.7v-23.3c0-.4-.1-.8-1.3-.9v-.5c4.7.4 7 .6 11.7 1.1v.6c-.7 0-1.1.2-1.1.7 0 .3 4.2 11.1 4.2 11.1.3 0 4.5-9.6 4.5-10.2s-.4-.8-1.1-1v-.5c4.9.5 7.3.9 12.2 1.5v.6c-1.1-.1-1.3.2-1.3.7v23.3c0 .4.1.8 1.3 1v.6c-3.7-.8-5.4-1-9-1.4zm45.3-6.8c-.1 8.9-6.4 12.4-14 11.3-7.9-1.1-14.1-7.2-14-15.4.1-9 6.4-12.3 14-11.2 7.8 1.2 14.1 7.2 14 15.3zm-21.4-3.1c-.1 4.3 3.1 8 7.4 8.6 3.9.6 7.4-1.6 7.4-6.4.1-4.3-3.1-8-7.4-8.6-3.9-.5-7.3 1.6-7.4 6.4zm31.2-7.2c0-.4-.1-.8-1.3-1v-.6c4.3.6 6.5.8 10.8 1.3v.5c-1-.1-1.2.2-1.2.5 0 .5 7.8 10.4 10.9 14.7v-13.3c0-.6-.4-.8-.9-.9v-.6c3.3.3 4.9.5 8.2.8v.6c-1.1 0-1.2.3-1.2.7v23.3c0 .4.1.8 1.2 1v.6c-3.4-.3-5.1-.5-8.5-.8v-.6c.8.1 1.1-.2 1-.4-1.5-4.7-8.8-11.6-13-17.5v15.8c0 .4.1.8 1.3 1v.6l-8.5-1v-.6c1.1.1 1.3-.3 1.3-.7l-.1-23.4zm37.6 3.6c0-.4-.1-.7-1.3-.9v-.6c6 .4 8.9.5 14.9.6 8.2.1 12.1 5 12.1 12.7 0 7.1-4.3 13.4-12.6 13.3-5.8-.1-8.6-.2-14.4-.6v-.6c1.1 0 1.3-.3 1.3-.8v-23.1zm6.7 19.3c2.3.1 3.4.1 5.7.1 4.8.1 6.7-3 6.7-7.4s-1.9-7.3-6.7-7.4c-2.3 0-3.4-.1-5.7-.2v14.9zm28.6-5.5l.5.2c-.1.4-.1.7-.1 1.1 0 1.4 4.8 3.1 9.5 2.1 4.5-.9 6.5-2.7 6.5-4.9 0-3.8-18.5 3.6-18.5-6.2 0-5 4.3-8.5 10.9-9.7 6.1-1.2 10.6-.6 11.8-.9.5-.2 1-.6 1.2-1.1h.5c-1.2 3-1.9 4.5-3.1 7.7l-.5-.1v-.6c0-1.2-5.1-1.2-9.3-.4-3.9.8-5.5 2.7-5.2 3.2 1.8 3.4 17.7-3.2 18.6 6.4.4 4-2.9 10.2-12.6 12.1-7.5 1.5-10.8-.4-11.9-.4-.4 0-.6.4-.9.7l-.5-.1c1.1-3.4 1.8-5.3 3.1-9.1zm37.7-80.2c0-1.5 1.1-2.7 2.6-2.7s2.7 1.1 2.7 2.6-1.1 2.7-2.6 2.7h-.1c-1.4 0-2.6-1.1-2.6-2.5v-.1zm2.6 3.1c1.7-.1 2.9-1.6 2.8-3.3-.1-1.7-1.6-2.9-3.3-2.8-1.6.1-2.8 1.5-2.8 3 0 1.8 1.5 3.1 3.3 3.1zm-.7-2.8h.7l1 1.5h.6l-1.1-1.5c.6-.1 1-.3 1-1s-.4-1-1.3-1h-1.5v3.5h.6v-1.5zm0-.5v-1.1h.8c.4 0 .8.1.8.5s-.4.6-.9.6h-.7z"/></svg>
