<svg width="24" height="22" viewBox="0 0 24 22" xmlns="http://www.w3.org/2000/svg">
  <path d="M.8.344c-.442 0-.8.358-.8.8 0 .44.358.798.8.798h2.547l2.747 12.963c.11.487.43.894.833.89h13.32c.422.006.81-.377.81-.8 0-.42-.388-.804-.81-.798H7.577l-.342-1.6h14.078c.357 0 .695-.274.774-.623l1.865-7.992c.104-.464-.3-.97-.775-.974H5.212L4.78.976C4.702.622 4.36.343 3.995.344H.8zm4.745 4.262H22.17L20.68 11H6.902L5.545 4.606zM9.59 16.328c-1.46 0-2.663 1.202-2.663 2.664 0 1.462 1.202 2.664 2.664 2.664 1.467 0 2.67-1.202 2.67-2.664 0-1.462-1.203-2.664-2.664-2.664zm7.993 0c-1.462 0-2.664 1.202-2.664 2.664 0 1.462 1.2 2.664 2.66 2.664s2.662-1.202 2.662-2.664c0-1.462-1.202-2.664-2.664-2.664zm-7.992 1.6c.6 0 1.07.466 1.07 1.064 0 .598-.466 1.066-1.064 1.066-.597 0-1.065-.468-1.065-1.066 0-.598.468-1.065 1.066-1.065zm7.998 0c.598 0 1.065.466 1.065 1.064 0 .598-.467 1.066-1.065 1.066-.598 0-1.066-.468-1.066-1.066 0-.598.468-1.065 1.066-1.065z"/>
</svg>
