<svg xmlns="http://www.w3.org/2000/svg" width="32" height="32" viewBox="0 0 32 32">
  <path d="M16 29.09C8.78 29.09 2.91 23.22 2.91 16S8.78 2.91 16 2.91 29.09 8.78 29.09 16 23.22 29.09 16 29.09M16 0C7.163 0 0 7.163 0 16s7.163 16 16 16 16-7.163 16-16S24.837 0 16 0m-4.334 17.48h2.576c-.048 1.312-.832 2.417-2.752 2.417-2.24 0-3.185-1.585-3.185-3.793v-.128c0-2.336 1.168-3.824 3.153-3.824 1.376 0 2.256.608 2.48 1.952h2.576c-.272-2.833-2.544-4-5.088-4-3.377 0-5.825 2.4-5.825 5.84v.128c0 3.393 2.08 5.825 5.83 5.825 3.424 0 5.376-2.032 5.376-5.09v-1.215H11.67v1.888zm6.687-7.2v11.44h2.592v-4.432h3.76v-1.952h-3.76V12.31h4.753v-2.03h-7.345z"/>
</svg>
