<svg xmlns="http://www.w3.org/2000/svg" viewBox="0 0 114 90"><defs><style>.grws-cls-1{fill:none;}.grws-cls-2{fill:#223b4c;}</style></defs><g><g><path class="grws-cls-1" d="M37.66 51.11a6.43 6.43 0 0 0 3.55 1.22l8.32.29c-.62-1.88-2.29-2.81-.92-4.72 1.26-1.76 2.57-.8 4.31-.65l-2.75-7.35a6.51 6.51 0 0 0-11.37-1.54L36.18 42a6.53 6.53 0 0 0 1.48 9.11zM60.4 52a3.7 3.7 0 0 1-.41-.3 1.85 1.85 0 0 1-.58-1.47c0-.75 0-1.48-.81-1.75-1.19-.38-1.41.73-2.23 1.41a2.14 2.14 0 0 1-.25.19 2 2 0 0 1-.41.2A2.75 2.75 0 0 1 54 50.2c-.65-.18-1.21-.33-1.71.37-.62.87 0 1.4.46 2.16a3.19 3.19 0 0 1 .15.29 2.08 2.08 0 0 1 .2.87 2.24 2.24 0 0 1-.3 1.11c-.44.78-1.09 1.32-.45 2.19.5.69 1 .54 1.69.36l.38-.1a2.35 2.35 0 0 1 1.33 0 2 2 0 0 1 .65.36c.85.68 1.08 1.8 2.27 1.41.88-.29.84-.93.87-1.67a2.57 2.57 0 0 1 .42-1.49 2 2 0 0 1 .4-.41 2.35 2.35 0 0 1 .31-.2c.87-.49 1.88-.44 1.87-1.62s-.78-1.14-1.78-1.65zm19.41 4v-4.52a6.49 6.49 0 0 0-6.5-6.48 6.43 6.43 0 0 0-3.58 1.11l-6.18 4.18c2 1.35 3.55 1 3.57 3.51S65 55.93 63.4 57.29l6.31 4.18a6.43 6.43 0 0 0 3.67 1.07A6.52 6.52 0 0 0 79.81 56zm-43.5 9.93L39 69.58a6.47 6.47 0 0 0 11.3-1.63l2.7-7.42c-1.73.17-3 1.13-4.29-.61-1.39-1.9.29-2.85.88-4.76l-8.27.37a6.43 6.43 0 0 0-3.6 1.3 6.56 6.56 0 0 0-1.41 9.1zm47.74-26.54c1.28.13 2.56.32 3.83.55L86.77 4.7a2.79 2.79 0 0 0-5.57 0l-1.1 34.45c1.33.04 2.65.11 3.95.24zM62 28.94l4.29 1.37a8.38 8.38 0 0 1 1 .42l-.8-12.52a2.94 2.94 0 0 0-5.88.16l-.08 10.25a8.52 8.52 0 0 1 1.47.32zm3.92 46.48a6.52 6.52 0 0 0 2-11.3L62 59.53c-.44 1.76.17 3.36-1.93 4.06-2.38.79-2.66-1.43-4.59-2.53l-2.15 7.82a6.54 6.54 0 0 0 8.29 8zm6.2-35.93l.78-.09c1.69-.17 3.42-.26 5.14-.27L77 9.76a2.8 2.8 0 0 0-5.59 0l-.75 23.75a8.55 8.55 0 0 1 1.46 5.98zM7.16 48.56A2.58 2.58 0 0 0 4.58 46H2.31L3 51.13h1.58a2.57 2.57 0 0 0 2.58-2.57z"/><path class="grws-cls-1" d="M109.42 53.13a4.56 4.56 0 1 1 0-9.13h2.52v-.3a2.27 2.27 0 0 0-.56-1.81 2.33 2.33 0 0 0-1.74-.79 6.37 6.37 0 0 0-6.25 5.11l-1.56 7.89a8 8 0 0 1-.86 2.34v.08a8.17 8.17 0 0 1-7.09 4.14 13.71 13.71 0 0 0-9.76 4 13.64 13.64 0 0 0-2.94 15 1 1 0 0 1-1.84.78 15.67 15.67 0 0 1 8.34-20.54 15.77 15.77 0 0 1 6.13-1.23A6.21 6.21 0 0 0 98.95 56c-1.49-2.89-1.49-9.26-1.34-15.59V9.93a2.92 2.92 0 0 0-.9-2.1A2.88 2.88 0 0 0 94.65 7a2.92 2.92 0 0 0-2.82 2.75l-1.94 30.42a1 1 0 0 1 0 .14c1.63.35 3.26.77 4.85 1.26a1 1 0 1 1-.6 1.91c-1.65-.51-3.34-1-5-1.3a52.78 52.78 0 0 0-5.22-.8 53.59 53.59 0 0 0-10.75 0l-1.51.18a8.78 8.78 0 0 1-1.08 1.94 8.41 8.41 0 0 1 2.69-.5 8.49 8.49 0 0 1 8.47 8.46V52a15.88 15.88 0 0 1 7.53-1.79 1 1 0 0 1 0 2 13.68 13.68 0 0 0-7.52 2.1V56a8.52 8.52 0 0 1-8.34 8.55h-.15a8.58 8.58 0 0 1-2.7-.44 8.48 8.48 0 0 1-4.07 13.22l-4.27 1.42a8.39 8.39 0 0 1-1.87.39.93.93 0 0 1 0 .1 8.81 8.81 0 0 0 8.9 8.76h27.37a4 4 0 0 0 2.86-1.18A33.32 33.32 0 0 0 109 67.45l1.8-14.32zM53.26 35.07a6.52 6.52 0 0 0-.06 3.77l2.24 7.84c1.9-1.13 2.16-3.33 4.54-2.57 2.07.66 1.33 2.52 1.84 4.18l5.92-4.74a6.48 6.48 0 0 0 2.15-3.17 6.55 6.55 0 0 0-4.21-8.17l-4.28-1.36a6.47 6.47 0 0 0-8.14 4.22zM51.6 73.42a8.69 8.69 0 0 1-.46-2.86 8.44 8.44 0 0 1-13.78.19l-2.67-3.64a8.56 8.56 0 0 1 .64-10.83 13.22 13.22 0 0 0-9.92-4.09 1 1 0 0 1 0-2A15.2 15.2 0 0 1 36.86 55 8.71 8.71 0 0 1 39 54a8.43 8.43 0 0 1-2.52-1.23 8.53 8.53 0 0 1-2.12-11.59c-1.41 0-2.83.1-4.22.24a52.78 52.78 0 0 0-5.22.8c-1.7.35-3.39.79-5 1.3a1 1 0 0 1-.6-1.91c1.59-.5 3.22-.91 4.85-1.26a.92.92 0 0 1 0-.14l-2-30.45a2.92 2.92 0 0 0-5.83.18v30.45c.15 6.34.16 12.71-1.34 15.59a6.16 6.16 0 0 0 5.07 2.69 15.74 15.74 0 0 1 14.55 9.57 15.66 15.66 0 0 1 0 12.2 1 1 0 0 1-1.84-.78 13.61 13.61 0 0 0-2.94-15 13.71 13.71 0 0 0-9.73-4A8.21 8.21 0 0 1 13 56.51a8 8 0 0 1-.88-2.37l-1.56-7.89a6.37 6.37 0 0 0-6.25-5.11 2.33 2.33 0 0 0-1.74.79A2.27 2.27 0 0 0 2 43.7v.3h2.58a4.56 4.56 0 1 1 0 9.13H3.2l1.64 13.06 3-1.11.67 1.92-3.4 1.27a33.33 33.33 0 0 0 9.4 18.59A4 4 0 0 0 17.37 88h27.38a8.81 8.81 0 0 0 8.82-8.78v-2.63a8.4 8.4 0 0 1-1.97-3.17z"/><path class="grws-cls-1" d="M106.84 48.56a2.57 2.57 0 0 0 2.58 2.56H111l.64-5.13h-2.27a2.58 2.58 0 0 0-2.53 2.57zM37.18 37.19a8.46 8.46 0 0 1 6.21-3.5l-.76-23.94a2.8 2.8 0 0 0-5.59 0L36 38.87zm-7.24 2.2c1.3-.13 2.63-.2 4-.24L32.8 4.7a2.79 2.79 0 0 0-5.57 0l-1.12 35.24c1.28-.22 2.56-.42 3.83-.55zm18.99-4.2a8.65 8.65 0 0 1 2 2A8.4 8.4 0 0 1 53.46 31l-.1-12.64a2.94 2.94 0 0 0-5.88-.16L46.45 34a8.37 8.37 0 0 1 2.48 1.19z"/><path class="grws-cls-2" d="M112.92 40.57a4.33 4.33 0 0 0-3.24-1.46 8.37 8.37 0 0 0-8.21 6.73l-1.4 7.11c-.67-3.52-.53-9.33-.46-12.52V9.93a4.92 4.92 0 0 0-9.83-.3l-.61 9.53-.4-14.52a4.79 4.79 0 0 0-9.57 0l-.2 6.21V9.69a4.8 4.8 0 0 0-9.59 0L68.91 24l-.38-6a4.94 4.94 0 0 0-9.87.27l-.08 10.23a8.44 8.44 0 0 0-3 .9l-.13.07-.09-11.2a4.94 4.94 0 0 0-9.87-.27l-.38 6-.48-14.31a4.8 4.8 0 0 0-9.59 0v1.17l-.2-6.22a4.79 4.79 0 0 0-9.57 0l-.46 14.53-.61-9.53a4.92 4.92 0 0 0-9.83.3v30.5c.07 3.19.21 9-.46 12.52l-1.4-7.11a8.37 8.37 0 0 0-8.21-6.73A4.31 4.31 0 0 0 0 44l3 23.7a35.33 35.33 0 0 0 10.1 20.53A6 6 0 0 0 17.37 90h27.38a10.81 10.81 0 0 0 10.82-10.78V78.1a8.51 8.51 0 0 0 2.9 1 .94.94 0 0 0 0 .15A10.81 10.81 0 0 0 69.25 90h27.37a6 6 0 0 0 4.27-1.77A35.33 35.33 0 0 0 111 67.7l3-23.7a4.3 4.3 0 0 0-1.08-3.43zM81.2 4.69a2.79 2.79 0 0 1 5.57 0l1.12 35.24c-1.27-.22-2.55-.42-3.83-.55s-2.63-.2-4-.24zm-9.83 5.06a2.8 2.8 0 0 1 5.59 0L78 39.12c-1.72 0-3.44.1-5.14.27l-.78.09a8.55 8.55 0 0 0-1.5-6zm-17.9 63a6.51 6.51 0 0 1-.12-3.84l2.15-7.82c1.93 1.1 2.21 3.32 4.59 2.53 2.11-.7 1.5-2.29 1.93-4.06l5.85 4.59a6.52 6.52 0 0 1-2 11.3l-4.27 1.42a6.5 6.5 0 0 1-8.13-4.15zM37.68 56.84a6.43 6.43 0 0 1 3.6-1.3l8.27-.37c-.59 1.9-2.27 2.85-.88 4.76 1.27 1.74 2.56.78 4.29.61l-2.69 7.41A6.48 6.48 0 0 1 48 71a6.46 6.46 0 0 1-9-1.39l-2.67-3.64a6.56 6.56 0 0 1 1.35-9.13zM36.18 42l2.63-3.67a6.45 6.45 0 0 1 5.26-2.69 6.53 6.53 0 0 1 6.11 4.24l2.75 7.35c-1.75-.14-3.06-1.11-4.31.65-1.37 1.91.3 2.84.92 4.72l-8.32-.29a6.43 6.43 0 0 1-3.55-1.22A6.53 6.53 0 0 1 36.18 42zm26.34 11.84c0 1.18-1 1.14-1.87 1.62a2.35 2.35 0 0 0-.31.2 2 2 0 0 0-.4.41 2.57 2.57 0 0 0-.42 1.49c0 .74 0 1.38-.87 1.67-1.19.4-1.42-.73-2.27-1.41a2 2 0 0 0-.65-.36 2.35 2.35 0 0 0-1.33 0l-.38.1c-.64.18-1.18.33-1.69-.36-.64-.87 0-1.41.45-2.19a2.24 2.24 0 0 0 .32-1.14 2.08 2.08 0 0 0-.2-.87 3.19 3.19 0 0 0-.15-.29c-.45-.76-1.09-1.29-.46-2.16.5-.7 1.06-.55 1.71-.37a2.75 2.75 0 0 0 1.68.08 2 2 0 0 0 .41-.2 2.14 2.14 0 0 0 .25-.19c.82-.69 1-1.79 2.23-1.41.86.27.78 1 .81 1.75a1.85 1.85 0 0 0 .62 1.5 3.7 3.7 0 0 0 .41.3l.33.19c1 .5 1.77.4 1.78 1.64zm7.19 7.63l-6.31-4.18c1.62-1.36 3.69-1 3.68-3.48s-1.54-2.16-3.57-3.51l6.18-4.18A6.43 6.43 0 0 1 73.28 45a6.49 6.49 0 0 1 6.47 6.47v4.52a6.52 6.52 0 0 1-6.43 6.54 6.43 6.43 0 0 1-3.61-1.06zm-8.14-45.21a2.94 2.94 0 0 1 5 2l.8 12.52a8.38 8.38 0 0 0-1-.42L62 28.94a8.52 8.52 0 0 0-1.43-.32l.08-10.25a2.93 2.93 0 0 1 .92-2.11zm-5.1 15a6.41 6.41 0 0 1 4.93-.41l4.29 1.37a6.55 6.55 0 0 1 4.21 8.17 6.48 6.48 0 0 1-2.15 3.17l-5.93 4.74c-.51-1.66.23-3.52-1.84-4.18-2.38-.76-2.64 1.44-4.54 2.57l-2.24-7.84a6.52 6.52 0 0 1 3.26-7.58zm-9-13a2.94 2.94 0 0 1 5.88.16L53.44 31A8.4 8.4 0 0 0 51 37.23a8.65 8.65 0 0 0-2-2A8.37 8.37 0 0 0 46.45 34zM37 9.75a2.8 2.8 0 0 1 5.59 0l.76 23.93a8.46 8.46 0 0 0-6.21 3.5L36 38.87zm-9.77-5.06a2.79 2.79 0 0 1 5.57 0l1.1 34.46c-1.32 0-2.65.11-4 .24s-2.56.32-3.83.55zM2.31 46h2.27a2.56 2.56 0 1 1 0 5.13H3zm42.44 42H17.37a4 4 0 0 1-2.86-1.18 33.33 33.33 0 0 1-9.4-18.59L8.51 67l-.7-1.87-3 1.11L3.2 53.13h1.38a4.56 4.56 0 1 0 0-9.13H2.06v-.3a2.27 2.27 0 0 1 .56-1.81 2.33 2.33 0 0 1 1.74-.79 6.37 6.37 0 0 1 6.25 5.11l1.56 7.89a8 8 0 0 0 .83 2.38 8.21 8.21 0 0 0 7.16 4.16 13.67 13.67 0 0 1 12.67 19 1 1 0 0 0 1.84.78 15.67 15.67 0 0 0-8.35-20.52 15.75 15.75 0 0 0-6.18-1.23A6.16 6.16 0 0 1 15.05 56c1.49-2.88 1.49-9.25 1.34-15.59V9.94a2.92 2.92 0 0 1 5.83-.18l1.94 30.42a.92.92 0 0 0 0 .14c-1.63.35-3.26.77-4.85 1.26a1 1 0 1 0 .6 1.91c1.65-.51 3.34-1 5-1.3a52.78 52.78 0 0 1 5.22-.8c1.39-.14 2.81-.21 4.22-.24a8.53 8.53 0 0 0 2.12 11.59A8.43 8.43 0 0 0 39 54a8.71 8.71 0 0 0-2.15 1 15.2 15.2 0 0 0-11.44-4.8 1 1 0 0 0 0 2 13.22 13.22 0 0 1 9.92 4.09 8.56 8.56 0 0 0-.64 10.83l2.67 3.64a8.41 8.41 0 0 0 5.56 3.37 8.51 8.51 0 0 0 1.29.1 8.38 8.38 0 0 0 6.93-3.67 8.69 8.69 0 0 0 .46 2.86 8.4 8.4 0 0 0 2 3.17v2.64A8.81 8.81 0 0 1 44.75 88zm54.74-1.18A4 4 0 0 1 96.62 88H69.25a8.81 8.81 0 0 1-8.82-8.78.93.93 0 0 0 0-.1 8.39 8.39 0 0 0 1.87-.39l4.27-1.42a8.48 8.48 0 0 0 4.05-13.21 8.58 8.58 0 0 0 2.7.44h.15A8.52 8.52 0 0 0 81.81 56v-1.7a13.68 13.68 0 0 1 7.52-2.1 1 1 0 0 0 0-2 15.88 15.88 0 0 0-7.54 1.8v-.51A8.49 8.49 0 0 0 73.31 43a8.41 8.41 0 0 0-2.75.49 8.78 8.78 0 0 0 1.08-1.94l1.51-.18a53.59 53.59 0 0 1 10.75 0 52.78 52.78 0 0 1 5.22.8c1.7.35 3.39.79 5 1.3a1 1 0 1 0 .6-1.91c-1.59-.5-3.22-.91-4.85-1.26a1 1 0 0 0 0-.14l1.96-30.4A2.92 2.92 0 0 1 94.65 7a2.88 2.88 0 0 1 2.11.82 2.92 2.92 0 0 1 .9 2.1v30.46c-.15 6.34-.15 12.71 1.34 15.59a6.21 6.21 0 0 1-5.13 2.7 15.72 15.72 0 0 0-11.13 4.59 15.63 15.63 0 0 0-3.37 17.18 1 1 0 0 0 1.84-.78 13.61 13.61 0 0 1 2.94-15 13.71 13.71 0 0 1 9.76-4 8.17 8.17 0 0 0 7.09-4.13v-.08a8 8 0 0 0 .86-2.34l1.56-7.89a6.37 6.37 0 0 1 6.25-5.11 2.33 2.33 0 0 1 1.74.79 2.27 2.27 0 0 1 .59 1.8v.3h-2.52a4.56 4.56 0 1 0 0 9.13h1.38L109 67.45a33.32 33.32 0 0 1-9.51 19.37zM111.69 46l-.69 5.13h-1.63a2.56 2.56 0 1 1 0-5.13z"/></g></g></svg>
