<svg xmlns="http://www.w3.org/2000/svg" viewBox="0 0 13.09 16"><g><g><rect x="5.82" y="6.55" width="1.45" height="9.45"/><path d="M7.71,10.91H5.82V9A5.39,5.39,0,0,1,11.2,3.64h1.89V5.53A5.39,5.39,0,0,1,7.71,10.91ZM7.27,9.45h.44a3.93,3.93,0,0,0,3.93-3.93V5.09H11.2A3.93,3.93,0,0,0,7.27,9Z"/><path d="M7.27,15.27H5.38A5.39,5.39,0,0,1,0,9.89V8H1.89a5.39,5.39,0,0,1,5.38,5.38ZM1.45,9.45v.44a3.93,3.93,0,0,0,3.93,3.93h.44v-.44A3.93,3.93,0,0,0,1.89,9.45Z"/><path d="M7.27,7.27H5.38A5.39,5.39,0,0,1,0,1.89V0H1.89A5.39,5.39,0,0,1,7.27,5.38ZM1.45,1.45v.44A3.93,3.93,0,0,0,5.38,5.82h.44V5.38A3.93,3.93,0,0,0,1.89,1.45Z"/></g></g></svg>
