<svg viewBox="0 0 21 21" xmlns="http://www.w3.org/2000/svg">
  <g>
    <path d="M10.76 0C8.022 0 7.68.012 6.604.06 5.53.11 4.798.28 4.157.53c-.663.257-1.225.6-1.785 1.162-.56.56-.905 1.122-1.163 1.785-.25.64-.42 1.374-.47 2.447C.69 7 .68 7.342.68 10.08c0 2.738.01 3.08.06 4.156.05 1.073.22 1.806.47 2.447.257.663.6 1.225 1.162 1.785.56.56 1.122.905 1.785 1.163.64.25 1.374.42 2.447.47 1.075.05 1.418.06 4.156.06 2.738 0 3.08-.01 4.156-.06 1.073-.05 1.806-.22 2.447-.47.663-.255 1.225-.6 1.785-1.16.56-.56.905-1.122 1.163-1.785.25-.64.42-1.374.47-2.447.05-1.075.06-1.418.06-4.156 0-2.737-.01-3.08-.06-4.155-.05-1.073-.22-1.806-.47-2.447-.255-.663-.6-1.225-1.16-1.785-.56-.56-1.122-.905-1.785-1.163-.64-.25-1.374-.42-2.447-.47C13.84.012 13.498 0 10.76 0zm0 1.816c2.69 0 3.01.01 4.073.06.983.044 1.517.208 1.872.346.47.183.806.4 1.16.754.352.353.57.69.753 1.16.138.354.302.888.347 1.87.048 1.064.06 1.383.06 4.074 0 2.692-.012 3.01-.06 4.073-.045.983-.21 1.517-.347 1.872-.183.47-.4.806-.754 1.16-.353.352-.69.57-1.16.753-.354.138-.888.302-1.87.347-1.064.05-1.382.06-4.074.06s-3.01-.01-4.073-.06c-.983-.045-1.517-.21-1.872-.347-.47-.183-.806-.4-1.16-.754-.352-.353-.57-.69-.753-1.16-.138-.354-.302-.888-.347-1.87-.05-1.064-.06-1.382-.06-4.074 0-2.69.01-3.01.06-4.073.045-.983.21-1.517.347-1.872.183-.47.4-.806.754-1.16.353-.352.69-.57 1.16-.753.354-.138.888-.302 1.87-.347 1.064-.05 1.382-.06 4.074-.06z"/>
    <path d="M10.896 13.576c-1.856 0-3.36-1.504-3.36-3.36 0-1.855 1.504-3.36 3.36-3.36 1.856 0 3.36 1.505 3.36 3.36 0 1.856-1.504 3.36-3.36 3.36zm0-8.536c-2.86 0-5.176 2.318-5.176 5.176 0 2.86 2.317 5.176 5.176 5.176 2.86 0 5.176-2.317 5.176-5.176 0-2.858-2.317-5.176-5.176-5.176zm6.484-.47c0 .668-.542 1.21-1.21 1.21-.668 0-1.21-.542-1.21-1.21 0-.668.542-1.21 1.21-1.21.668 0 1.21.542 1.21 1.21z"/>
  </g>
</svg>
