<svg xmlns="http://www.w3.org/2000/svg" viewBox="0 0 16 16"><g><g><path d="M8,1.45A6.55,6.55,0,1,1,1.45,8,6.55,6.55,0,0,1,8,1.45M8,0a8,8,0,1,0,8,8A8,8,0,0,0,8,0Z"/><path d="M8,1.61V2.75a.88.88,0,0,0,.88.88H9.6a.88.88,0,0,1,.82,1.21L9.16,8,8.58,9.45,8.36,10a.88.88,0,0,1-1.22.46L5.42,9.62A.88.88,0,0,1,5,9.11L3.84,5.7A.88.88,0,0,0,3,5.09H.73C2.1,2.34,3.48,2.19,4.85,1A.89.89,0,0,1,5.44.73H7.12A.88.88,0,0,1,8,1.61Z"/><path d="M10.36,14.87V13a.65.65,0,0,0-.65-.65H8.43a.4.4,0,0,1-.28-.69L10.81,9a.4.4,0,0,1,.57,0l2.4,2.4a.4.4,0,0,1,.06.49l-1.48,2.46a1.86,1.86,0,0,1-1.59.9h0A.4.4,0,0,1,10.36,14.87Z"/></g></g></svg>
