<svg width="16" height="14" viewBox="0 0 16 14" xmlns="http://www.w3.org/2000/svg">
    <path d="M16 5.044v7.09c0 .392-.14.73-.42 1.01-.28.278-.616.418-1.01.418H1.43c-.394 0-.73-.14-1.01-.42-.28-.28-.42-.616-.42-1.008v-7.09c.262.292.562.55.902.777C3.057 7.29 4.536 8.32 5.34 8.9c.34.25.614.446.825.586.21.14.493.283.844.43.35.145.67.218.98.218h.02c.3 0 .63-.073.98-.22.35-.145.63-.288.84-.428.21-.14.482-.335.822-.585 1.012-.73 2.494-1.75 4.446-3.08.34-.23.637-.49.893-.77zm0-2.625c0 .47-.146.92-.438 1.34-.29.43-.654.793-1.09 1.1l-4.177 2.9c-.06.04-.186.132-.38.272-.193.14-.354.252-.482.34-.128.084-.283.18-.464.29-.19.105-.36.186-.52.24-.16.053-.31.08-.45.08h-.02c-.136 0-.285-.027-.445-.08-.16-.054-.33-.135-.514-.24-.18-.11-.335-.206-.463-.29-.13-.088-.29-.2-.483-.34l-.38-.273c-.54-.38-1.32-.925-2.34-1.63l-1.83-1.27C1.16 4.61.81 4.266.484 3.83.165 3.395 0 2.99 0 2.615c0-.465.124-.85.37-1.16.25-.31.6-.465 1.06-.465h13.14c.388 0 .723.14 1.006.42.283.28.424.613.424 1.01z" />
</svg>
