<svg xmlns="http://www.w3.org/2000/svg" viewBox="0 0 24 24"><g><g><path d="M12 0a12 12 0 1 0 12 12A12 12 0 0 0 12 0zm7.74 18.32l-3.07-3.07h-2.83l4.49 4.49A10 10 0 0 1 2 12.61a2.75 2.75 0 0 0 2.92 2c1.93 0 2.87-1.14 2.87-2.57v-.74H5.06v1.2H6c0 .38-.31.73-1 .73-.93 0-1.21-.68-1.21-1.52v-.06c0-1 .44-1.53 1.16-1.53a.81.81 0 0 1 .92.74h1.8c-.1-1.53-1.33-2.17-2.73-2.17a2.93 2.93 0 0 0-2.82 1.73 10 10 0 0 1 2.14-4.74L6.63 8h2.83L5.68 4.26a10 10 0 0 1 16.17 6.06A2.92 2.92 0 0 0 19 8.68a2.89 2.89 0 0 0-3.07 2.93v.06a2.8 2.8 0 0 0 3 2.94 2.87 2.87 0 0 0 3-2.13 10 10 0 0 1-2.19 5.84zm.46-6.72v.06c0 1-.46 1.52-1.17 1.52s-1.18-.54-1.18-1.52v-.06c0-1 .46-1.5 1.16-1.5s1.19.53 1.19 1.5z"/><path d="M11.89 11.55l-.97-2.78H8.56v5.74h1.62v-3.39l1.28 3.39h.61l1.31-3.39v3.39h1.81V8.77h-2.31l-.99 2.78z"/></g></g></svg>
