<svg viewBox="0 0 16 17" xmlns="http://www.w3.org/2000/svg">
    <path d="M13.333 11.787c0-.08-.007-.14-.02-.177-.02-.06-.155-.168-.402-.326-.24-.16-.55-.342-.92-.548l-.55-.32c-.03-.023-.1-.07-.19-.145-.09-.07-.18-.12-.26-.16-.07-.03-.15-.05-.22-.05-.12 0-.28.12-.49.36-.2.24-.39.48-.59.73-.19.25-.34.37-.45.37-.05 0-.103-.013-.17-.04-.066-.024-.12-.05-.162-.07l-.177-.105c-.08-.047-.127-.08-.15-.094-.686-.405-1.28-.872-1.775-1.4-.5-.53-.94-1.16-1.32-1.89-.014-.022-.044-.073-.09-.155-.044-.08-.077-.142-.1-.187-.02-.046-.04-.103-.065-.173-.026-.07-.038-.13-.038-.187 0-.097.07-.22.217-.37.15-.153.3-.295.47-.428.17-.134.33-.28.47-.438.14-.16.214-.295.214-.406 0-.075-.02-.15-.053-.233-.034-.082-.086-.174-.156-.28-.07-.1-.115-.17-.136-.21-.02-.043-.075-.15-.158-.314-.087-.167-.17-.335-.26-.5l-.29-.54c-.094-.18-.18-.33-.26-.448-.08-.118-.137-.185-.172-.2-.035-.014-.09-.022-.167-.022-.33 0-.68.08-1.05.244-.32.155-.59.503-.83 1.046-.23.542-.35 1.023-.35 1.444 0 .118.01.244.03.376l.05.338c.02.093.05.215.1.366.046.15.08.26.105.327l.13.37.115.33c.412 1.21 1.164 2.39 2.25 3.55 1.087 1.16 2.2 1.96 3.338 2.4l.315.13.34.14c.064.028.166.065.31.11.14.05.256.084.343.1.086.02.19.04.317.058.126.02.244.03.355.03.397 0 .85-.127 1.36-.38.51-.25.84-.544.985-.883.15-.39.23-.76.23-1.115zM16 3.187v10.626c0 .878-.293 1.628-.88 2.252-.587.623-1.294.935-2.12.935H3c-.826 0-1.533-.312-2.12-.935C.293 15.44 0 14.69 0 13.812V3.188c0-.88.293-1.63.88-2.253C1.467.312 2.174 0 3 0h10c.826 0 1.533.312 2.12.935.587.624.88 1.374.88 2.252z" />
</svg>
