<svg viewBox="0 0 21 21" xmlns="http://www.w3.org/2000/svg">
  <path d="M10.5 0C4.7 0 0 4.7 0 10.5c0 4.45 2.765 8.25 6.67 9.777-.088-.83-.172-2.107.042-3.012.19-.816 1.23-5.22 1.23-5.22s-.313-.628-.313-1.557c0-1.462.84-2.55 1.9-2.55.89 0 1.32.674 1.32 1.48 0 .9-.58 2.25-.87 3.497-.25 1.04.53 1.894 1.56 1.894 1.86 0 3.3-1.97 3.3-4.81 0-2.52-1.81-4.28-4.39-4.28-2.99 0-4.74 2.24-4.74 4.55 0 .9.35 1.872.78 2.397.09.1.1.195.08.302l-.3 1.19c-.04.19-.15.23-.35.14-1.32-.617-2.13-2.527-2.13-4.07 0-3.31 2.41-6.35 6.93-6.35 3.643 0 6.472 2.59 6.472 6.06 0 3.62-2.285 6.532-5.45 6.532-1.06 0-2.06-.55-2.404-1.21 0 0-.523 2.006-.654 2.5-.238.91-.878 2.05-1.304 2.75.985.307 2.026.47 3.11.47C16.3 21 21 16.3 21 10.5S16.3 0 10.5 0z" />
</svg>
