<svg xmlns="http://www.w3.org/2000/svg" width="32" height="32" viewBox="0 0 32 32">
  <path d="M16 29.09C8.78 29.09 2.91 23.22 2.91 16c0-6.72 5.088-12.27 11.613-13.005v16.172l-6.18-7.035a1.454 1.454 0 1 0-2.186 1.92l8.758 9.97c.276.314.674.494 1.093.494h.002c.42 0 .818-.182 1.094-.498l8.697-9.97a1.455 1.455 0 0 0-2.19-1.912l-6.176 7.08V2.99c6.547.714 11.66 6.275 11.66 13.01 0 7.22-5.873 13.09-13.092 13.09M16 0C7.163 0 0 7.163 0 16c0 8.836 7.163 16 16 16s16-7.164 16-16c0-8.837-7.163-16-16-16"/>
</svg>
