<svg width="21" height="20" viewBox="0 0 21 18" xmlns="http://www.w3.org/2000/svg">
  <path d="M6.603 17.06c7.923 0 12.256-6.564 12.256-12.256 0-.187 0-.372-.016-.557.843-.61 1.57-1.365 2.15-2.23-.788.348-1.622.577-2.476.678.9-.54 1.573-1.385 1.894-2.383-.845.502-1.77.856-2.735 1.046-.65-.69-1.51-1.148-2.445-1.3-.936-.155-1.896.005-2.73.452-.837.448-1.502 1.158-1.894 2.02-.39.865-.486 1.833-.272 2.757-1.715-.087-3.39-.53-4.92-1.307C3.89 3.205 2.54 2.117 1.46.786c-.552.948-.72 2.07-.472 3.14.247 1.067.893 2 1.805 2.61-.686-.02-1.356-.205-1.955-.54v.056c0 .994.344 1.958.974 2.728.63.77 1.507 1.297 2.482 1.494-.634.173-1.3.2-1.945.074.273.856.81 1.605 1.53 2.14.722.537 1.593.835 2.492.852-1.525 1.198-3.41 1.85-5.35 1.847-.342 0-.685-.02-1.025-.062C1.97 16.39 4.26 17.06 6.6 17.057" />
</svg>
