<svg xmlns="http://www.w3.org/2000/svg" width="32" height="32" viewBox="0 0 32 32">
  <path d="M16 32C7.163 32 0 24.837 0 16S7.163 0 16 0s16 7.163 16 16-7.163 16-16 16zm0-2.043c7.708 0 13.957-6.25 13.957-13.957 0-7.708-6.25-13.957-13.957-13.957C8.292 2.043 2.043 8.293 2.043 16c0 7.708 6.25 13.957 13.957 13.957zM5.296 25.005A14.012 14.012 0 0 0 16 29.957c4.288 0 8.128-1.922 10.704-4.952A12.252 12.252 0 0 0 16 18.723c-4.6 0-8.607 2.534-10.704 6.282zM16 17.362a5.447 5.447 0 1 0 0-10.894 5.447 5.447 0 0 0 0 10.894z"/>
</svg>
