<svg viewBox="0 0 24 17" xmlns="http://www.w3.org/2000/svg">
  <path d="M9.332 11.322V4.714l6.354 3.315-6.354 3.29zM23.285 3.57s-.23-1.622-.935-2.336c-.894-.937-1.897-.94-2.357-.996C16.703 0 11.765 0 11.765 0h-.01s-4.937 0-8.23.238c-.458.055-1.46.06-2.355.996C.465 1.948.235 3.57.235 3.57S0 5.47 0 7.374V9.16c0 1.903.235 3.806.235 3.806s.23 1.62.935 2.335c.895.94 2.07.91 2.593 1.008 1.882.18 7.997.236 7.997.236s4.942-.007 8.233-.245c.46-.056 1.463-.06 2.357-.997.705-.713.935-2.334.935-2.334s.235-1.904.235-3.807V7.375c0-1.903-.235-3.806-.235-3.806z" />
</svg>
